<mxfile host="app.diagrams.net" agent="Mozilla/5.0 (Windows NT 10.0; Win64; x64) AppleWebKit/537.36 (KHTML, like Gecko) Chrome/128.0.0.0 Safari/537.36" version="24.7.14">
  <diagram id="C5RBs43oDa-KdzZeNtuy" name="Page-1">
    <mxGraphModel dx="3062" dy="2073" grid="1" gridSize="10" guides="1" tooltips="1" connect="1" arrows="1" fold="1" page="1" pageScale="1" pageWidth="827" pageHeight="1169" math="0" shadow="0">
      <root>
        <mxCell id="WIyWlLk6GJQsqaUBKTNV-0" />
        <mxCell id="WIyWlLk6GJQsqaUBKTNV-1" parent="WIyWlLk6GJQsqaUBKTNV-0" />
        <mxCell id="WIyWlLk6GJQsqaUBKTNV-2" value="" style="rounded=0;html=1;jettySize=auto;orthogonalLoop=1;fontSize=11;endArrow=block;endFill=0;endSize=8;strokeWidth=1;shadow=0;labelBackgroundColor=none;edgeStyle=orthogonalEdgeStyle;" parent="WIyWlLk6GJQsqaUBKTNV-1" source="WIyWlLk6GJQsqaUBKTNV-3" target="WIyWlLk6GJQsqaUBKTNV-6" edge="1">
          <mxGeometry relative="1" as="geometry" />
        </mxCell>
        <mxCell id="WIyWlLk6GJQsqaUBKTNV-3" value="syndicate_login" style="rounded=1;whiteSpace=wrap;html=1;fontSize=12;glass=0;strokeWidth=1;shadow=0;" parent="WIyWlLk6GJQsqaUBKTNV-1" vertex="1">
          <mxGeometry x="160" y="80" width="120" height="40" as="geometry" />
        </mxCell>
        <mxCell id="WIyWlLk6GJQsqaUBKTNV-4" value="Yes" style="rounded=0;html=1;jettySize=auto;orthogonalLoop=1;fontSize=11;endArrow=block;endFill=0;endSize=8;strokeWidth=1;shadow=0;labelBackgroundColor=none;edgeStyle=orthogonalEdgeStyle;" parent="WIyWlLk6GJQsqaUBKTNV-1" source="WIyWlLk6GJQsqaUBKTNV-6" edge="1">
          <mxGeometry y="20" relative="1" as="geometry">
            <mxPoint as="offset" />
            <mxPoint x="220" y="290" as="targetPoint" />
          </mxGeometry>
        </mxCell>
        <mxCell id="WIyWlLk6GJQsqaUBKTNV-5" value="No" style="edgeStyle=orthogonalEdgeStyle;rounded=0;html=1;jettySize=auto;orthogonalLoop=1;fontSize=11;endArrow=block;endFill=0;endSize=8;strokeWidth=1;shadow=0;labelBackgroundColor=none;" parent="WIyWlLk6GJQsqaUBKTNV-1" source="WIyWlLk6GJQsqaUBKTNV-6" target="WIyWlLk6GJQsqaUBKTNV-7" edge="1">
          <mxGeometry y="10" relative="1" as="geometry">
            <mxPoint as="offset" />
          </mxGeometry>
        </mxCell>
        <mxCell id="WIyWlLk6GJQsqaUBKTNV-6" value="auth" style="rhombus;whiteSpace=wrap;html=1;shadow=0;fontFamily=Helvetica;fontSize=12;align=center;strokeWidth=1;spacing=6;spacingTop=-4;" parent="WIyWlLk6GJQsqaUBKTNV-1" vertex="1">
          <mxGeometry x="170" y="160" width="100" height="80" as="geometry" />
        </mxCell>
        <mxCell id="WIyWlLk6GJQsqaUBKTNV-7" value="./syndicate_login" style="rounded=1;whiteSpace=wrap;html=1;fontSize=12;glass=0;strokeWidth=1;shadow=0;" parent="WIyWlLk6GJQsqaUBKTNV-1" vertex="1">
          <mxGeometry x="370" y="180" width="120" height="40" as="geometry" />
        </mxCell>
        <mxCell id="ojdwqN-lHdajQlmeoXYW-3" style="edgeStyle=orthogonalEdgeStyle;rounded=0;orthogonalLoop=1;jettySize=auto;html=1;entryX=0.5;entryY=0;entryDx=0;entryDy=0;" edge="1" parent="WIyWlLk6GJQsqaUBKTNV-1" source="ojdwqN-lHdajQlmeoXYW-0" target="ojdwqN-lHdajQlmeoXYW-4">
          <mxGeometry relative="1" as="geometry">
            <mxPoint x="420" y="370" as="targetPoint" />
            <Array as="points">
              <mxPoint x="480" y="315" />
            </Array>
          </mxGeometry>
        </mxCell>
        <mxCell id="ojdwqN-lHdajQlmeoXYW-6" style="edgeStyle=orthogonalEdgeStyle;rounded=0;orthogonalLoop=1;jettySize=auto;html=1;entryX=0.5;entryY=0;entryDx=0;entryDy=0;" edge="1" parent="WIyWlLk6GJQsqaUBKTNV-1" source="ojdwqN-lHdajQlmeoXYW-0" target="ojdwqN-lHdajQlmeoXYW-5">
          <mxGeometry relative="1" as="geometry" />
        </mxCell>
        <mxCell id="ojdwqN-lHdajQlmeoXYW-0" value="syndicate_dashboard" style="rounded=1;whiteSpace=wrap;html=1;" vertex="1" parent="WIyWlLk6GJQsqaUBKTNV-1">
          <mxGeometry x="160" y="290" width="120" height="50" as="geometry" />
        </mxCell>
        <mxCell id="ojdwqN-lHdajQlmeoXYW-11" style="edgeStyle=orthogonalEdgeStyle;rounded=0;orthogonalLoop=1;jettySize=auto;html=1;" edge="1" parent="WIyWlLk6GJQsqaUBKTNV-1" source="ojdwqN-lHdajQlmeoXYW-4" target="ojdwqN-lHdajQlmeoXYW-9">
          <mxGeometry relative="1" as="geometry" />
        </mxCell>
        <mxCell id="ojdwqN-lHdajQlmeoXYW-4" value="add/visitor_form" style="ellipse;whiteSpace=wrap;html=1;" vertex="1" parent="WIyWlLk6GJQsqaUBKTNV-1">
          <mxGeometry x="420" y="370" width="120" height="80" as="geometry" />
        </mxCell>
        <mxCell id="ojdwqN-lHdajQlmeoXYW-27" style="edgeStyle=orthogonalEdgeStyle;rounded=0;orthogonalLoop=1;jettySize=auto;html=1;entryX=0.5;entryY=0;entryDx=0;entryDy=0;" edge="1" parent="WIyWlLk6GJQsqaUBKTNV-1" source="ojdwqN-lHdajQlmeoXYW-5">
          <mxGeometry relative="1" as="geometry">
            <mxPoint x="-90" y="520" as="targetPoint" />
          </mxGeometry>
        </mxCell>
        <mxCell id="ojdwqN-lHdajQlmeoXYW-5" value="add/profile_form" style="ellipse;whiteSpace=wrap;html=1;" vertex="1" parent="WIyWlLk6GJQsqaUBKTNV-1">
          <mxGeometry x="-150" y="370" width="120" height="80" as="geometry" />
        </mxCell>
        <mxCell id="ojdwqN-lHdajQlmeoXYW-42" style="edgeStyle=orthogonalEdgeStyle;rounded=0;orthogonalLoop=1;jettySize=auto;html=1;entryX=0.5;entryY=0;entryDx=0;entryDy=0;" edge="1" parent="WIyWlLk6GJQsqaUBKTNV-1" source="ojdwqN-lHdajQlmeoXYW-7" target="ojdwqN-lHdajQlmeoXYW-40">
          <mxGeometry relative="1" as="geometry" />
        </mxCell>
        <mxCell id="ojdwqN-lHdajQlmeoXYW-7" value="view_data" style="ellipse;whiteSpace=wrap;html=1;" vertex="1" parent="WIyWlLk6GJQsqaUBKTNV-1">
          <mxGeometry x="30" y="370" width="120" height="80" as="geometry" />
        </mxCell>
        <mxCell id="ojdwqN-lHdajQlmeoXYW-43" style="edgeStyle=orthogonalEdgeStyle;rounded=0;orthogonalLoop=1;jettySize=auto;html=1;" edge="1" parent="WIyWlLk6GJQsqaUBKTNV-1" source="ojdwqN-lHdajQlmeoXYW-8" target="ojdwqN-lHdajQlmeoXYW-41">
          <mxGeometry relative="1" as="geometry" />
        </mxCell>
        <mxCell id="ojdwqN-lHdajQlmeoXYW-8" value="delete_data" style="ellipse;whiteSpace=wrap;html=1;" vertex="1" parent="WIyWlLk6GJQsqaUBKTNV-1">
          <mxGeometry x="230" y="370" width="120" height="80" as="geometry" />
        </mxCell>
        <mxCell id="ojdwqN-lHdajQlmeoXYW-22" style="edgeStyle=orthogonalEdgeStyle;rounded=0;orthogonalLoop=1;jettySize=auto;html=1;entryX=0.5;entryY=0;entryDx=0;entryDy=0;" edge="1" parent="WIyWlLk6GJQsqaUBKTNV-1" source="ojdwqN-lHdajQlmeoXYW-9" target="ojdwqN-lHdajQlmeoXYW-21">
          <mxGeometry relative="1" as="geometry" />
        </mxCell>
        <mxCell id="ojdwqN-lHdajQlmeoXYW-23" value="!=exists&lt;div&gt;&lt;br&gt;&lt;/div&gt;" style="edgeLabel;html=1;align=center;verticalAlign=middle;resizable=0;points=[];" vertex="1" connectable="0" parent="ojdwqN-lHdajQlmeoXYW-22">
          <mxGeometry x="0.0359" y="-2" relative="1" as="geometry">
            <mxPoint as="offset" />
          </mxGeometry>
        </mxCell>
        <mxCell id="ojdwqN-lHdajQlmeoXYW-9" value="auth" style="rhombus;whiteSpace=wrap;html=1;" vertex="1" parent="WIyWlLk6GJQsqaUBKTNV-1">
          <mxGeometry x="440" y="510" width="80" height="80" as="geometry" />
        </mxCell>
        <mxCell id="ojdwqN-lHdajQlmeoXYW-13" value="user exists&lt;br&gt;page reload" style="rounded=1;whiteSpace=wrap;html=1;" vertex="1" parent="WIyWlLk6GJQsqaUBKTNV-1">
          <mxGeometry x="740" y="530" width="120" height="60" as="geometry" />
        </mxCell>
        <mxCell id="ojdwqN-lHdajQlmeoXYW-14" style="edgeStyle=orthogonalEdgeStyle;rounded=0;orthogonalLoop=1;jettySize=auto;html=1;entryX=0.016;entryY=0.379;entryDx=0;entryDy=0;entryPerimeter=0;" edge="1" parent="WIyWlLk6GJQsqaUBKTNV-1" source="ojdwqN-lHdajQlmeoXYW-9" target="ojdwqN-lHdajQlmeoXYW-13">
          <mxGeometry relative="1" as="geometry" />
        </mxCell>
        <mxCell id="ojdwqN-lHdajQlmeoXYW-19" value="==exists" style="edgeLabel;html=1;align=center;verticalAlign=middle;resizable=0;points=[];" vertex="1" connectable="0" parent="ojdwqN-lHdajQlmeoXYW-14">
          <mxGeometry x="-0.009" relative="1" as="geometry">
            <mxPoint y="1" as="offset" />
          </mxGeometry>
        </mxCell>
        <mxCell id="ojdwqN-lHdajQlmeoXYW-21" value="visitor_form&lt;div&gt;&lt;br&gt;&lt;/div&gt;" style="rounded=1;whiteSpace=wrap;html=1;" vertex="1" parent="WIyWlLk6GJQsqaUBKTNV-1">
          <mxGeometry x="420" y="730" width="120" height="60" as="geometry" />
        </mxCell>
        <mxCell id="ojdwqN-lHdajQlmeoXYW-62" style="edgeStyle=orthogonalEdgeStyle;rounded=0;orthogonalLoop=1;jettySize=auto;html=1;entryX=1;entryY=0.5;entryDx=0;entryDy=0;" edge="1" parent="WIyWlLk6GJQsqaUBKTNV-1" source="ojdwqN-lHdajQlmeoXYW-24" target="ojdwqN-lHdajQlmeoXYW-58">
          <mxGeometry relative="1" as="geometry">
            <mxPoint x="230" y="1130" as="targetPoint" />
          </mxGeometry>
        </mxCell>
        <mxCell id="ojdwqN-lHdajQlmeoXYW-66" value="END" style="edgeLabel;html=1;align=center;verticalAlign=middle;resizable=0;points=[];" vertex="1" connectable="0" parent="ojdwqN-lHdajQlmeoXYW-62">
          <mxGeometry x="-0.1185" y="-1" relative="1" as="geometry">
            <mxPoint as="offset" />
          </mxGeometry>
        </mxCell>
        <mxCell id="ojdwqN-lHdajQlmeoXYW-24" value="" style="strokeWidth=2;html=1;shape=mxgraph.flowchart.database;whiteSpace=wrap;" vertex="1" parent="WIyWlLk6GJQsqaUBKTNV-1">
          <mxGeometry x="450" y="880" width="60" height="60" as="geometry" />
        </mxCell>
        <mxCell id="ojdwqN-lHdajQlmeoXYW-25" style="edgeStyle=orthogonalEdgeStyle;rounded=0;orthogonalLoop=1;jettySize=auto;html=1;entryX=0.5;entryY=0;entryDx=0;entryDy=0;entryPerimeter=0;" edge="1" parent="WIyWlLk6GJQsqaUBKTNV-1" source="ojdwqN-lHdajQlmeoXYW-21" target="ojdwqN-lHdajQlmeoXYW-24">
          <mxGeometry relative="1" as="geometry" />
        </mxCell>
        <mxCell id="ojdwqN-lHdajQlmeoXYW-26" value="new collection&amp;nbsp;" style="edgeLabel;html=1;align=center;verticalAlign=middle;resizable=0;points=[];" vertex="1" connectable="0" parent="ojdwqN-lHdajQlmeoXYW-25">
          <mxGeometry x="0.0301" y="-2" relative="1" as="geometry">
            <mxPoint as="offset" />
          </mxGeometry>
        </mxCell>
        <mxCell id="ojdwqN-lHdajQlmeoXYW-29" value="table" style="swimlane;fontStyle=0;childLayout=stackLayout;horizontal=1;startSize=26;horizontalStack=0;resizeParent=1;resizeParentMax=0;resizeLast=0;collapsible=1;marginBottom=0;align=center;fontSize=14;" vertex="1" parent="WIyWlLk6GJQsqaUBKTNV-1">
          <mxGeometry x="-170" y="520" width="160" height="116" as="geometry" />
        </mxCell>
        <mxCell id="ojdwqN-lHdajQlmeoXYW-30" value="visitor_form_1" style="text;strokeColor=none;fillColor=none;spacingLeft=4;spacingRight=4;overflow=hidden;rotatable=0;points=[[0,0.5],[1,0.5]];portConstraint=eastwest;fontSize=12;whiteSpace=wrap;html=1;" vertex="1" parent="ojdwqN-lHdajQlmeoXYW-29">
          <mxGeometry y="26" width="160" height="30" as="geometry" />
        </mxCell>
        <mxCell id="ojdwqN-lHdajQlmeoXYW-31" value="visitor_form_2" style="text;strokeColor=none;fillColor=none;spacingLeft=4;spacingRight=4;overflow=hidden;rotatable=0;points=[[0,0.5],[1,0.5]];portConstraint=eastwest;fontSize=12;whiteSpace=wrap;html=1;" vertex="1" parent="ojdwqN-lHdajQlmeoXYW-29">
          <mxGeometry y="56" width="160" height="30" as="geometry" />
        </mxCell>
        <mxCell id="ojdwqN-lHdajQlmeoXYW-32" value="visitor_form_3" style="text;strokeColor=none;fillColor=none;spacingLeft=4;spacingRight=4;overflow=hidden;rotatable=0;points=[[0,0.5],[1,0.5]];portConstraint=eastwest;fontSize=12;whiteSpace=wrap;html=1;" vertex="1" parent="ojdwqN-lHdajQlmeoXYW-29">
          <mxGeometry y="86" width="160" height="30" as="geometry" />
        </mxCell>
        <mxCell id="ojdwqN-lHdajQlmeoXYW-36" style="edgeStyle=orthogonalEdgeStyle;rounded=0;orthogonalLoop=1;jettySize=auto;html=1;" edge="1" parent="WIyWlLk6GJQsqaUBKTNV-1" source="ojdwqN-lHdajQlmeoXYW-33" target="ojdwqN-lHdajQlmeoXYW-35">
          <mxGeometry relative="1" as="geometry" />
        </mxCell>
        <mxCell id="ojdwqN-lHdajQlmeoXYW-33" value="JWT" style="rhombus;whiteSpace=wrap;html=1;" vertex="1" parent="WIyWlLk6GJQsqaUBKTNV-1">
          <mxGeometry x="-140" y="740" width="80" height="80" as="geometry" />
        </mxCell>
        <mxCell id="ojdwqN-lHdajQlmeoXYW-34" style="edgeStyle=orthogonalEdgeStyle;rounded=0;orthogonalLoop=1;jettySize=auto;html=1;entryX=1;entryY=0.5;entryDx=0;entryDy=0;" edge="1" parent="WIyWlLk6GJQsqaUBKTNV-1" target="ojdwqN-lHdajQlmeoXYW-33">
          <mxGeometry relative="1" as="geometry">
            <mxPoint x="-90" y="640" as="sourcePoint" />
            <Array as="points">
              <mxPoint x="-90" y="691" />
              <mxPoint x="-40" y="691" />
              <mxPoint x="-40" y="780" />
            </Array>
          </mxGeometry>
        </mxCell>
        <mxCell id="ojdwqN-lHdajQlmeoXYW-35" value="profile_form" style="rounded=1;whiteSpace=wrap;html=1;" vertex="1" parent="WIyWlLk6GJQsqaUBKTNV-1">
          <mxGeometry x="-160" y="880" width="120" height="60" as="geometry" />
        </mxCell>
        <mxCell id="ojdwqN-lHdajQlmeoXYW-59" style="edgeStyle=orthogonalEdgeStyle;rounded=0;orthogonalLoop=1;jettySize=auto;html=1;entryX=0;entryY=0.5;entryDx=0;entryDy=0;" edge="1" parent="WIyWlLk6GJQsqaUBKTNV-1" source="ojdwqN-lHdajQlmeoXYW-37" target="ojdwqN-lHdajQlmeoXYW-58">
          <mxGeometry relative="1" as="geometry" />
        </mxCell>
        <mxCell id="ojdwqN-lHdajQlmeoXYW-67" value="END" style="edgeLabel;html=1;align=center;verticalAlign=middle;resizable=0;points=[];" vertex="1" connectable="0" parent="ojdwqN-lHdajQlmeoXYW-59">
          <mxGeometry x="-0.0637" y="2" relative="1" as="geometry">
            <mxPoint as="offset" />
          </mxGeometry>
        </mxCell>
        <mxCell id="ojdwqN-lHdajQlmeoXYW-37" value="" style="strokeWidth=2;html=1;shape=mxgraph.flowchart.database;whiteSpace=wrap;" vertex="1" parent="WIyWlLk6GJQsqaUBKTNV-1">
          <mxGeometry x="-130" y="1040" width="60" height="60" as="geometry" />
        </mxCell>
        <mxCell id="ojdwqN-lHdajQlmeoXYW-38" style="edgeStyle=orthogonalEdgeStyle;rounded=0;orthogonalLoop=1;jettySize=auto;html=1;entryX=0.5;entryY=0;entryDx=0;entryDy=0;entryPerimeter=0;" edge="1" parent="WIyWlLk6GJQsqaUBKTNV-1" source="ojdwqN-lHdajQlmeoXYW-35" target="ojdwqN-lHdajQlmeoXYW-37">
          <mxGeometry relative="1" as="geometry" />
        </mxCell>
        <mxCell id="ojdwqN-lHdajQlmeoXYW-39" value="new collection" style="edgeLabel;html=1;align=center;verticalAlign=middle;resizable=0;points=[];" vertex="1" connectable="0" parent="ojdwqN-lHdajQlmeoXYW-38">
          <mxGeometry x="-0.0802" y="-1" relative="1" as="geometry">
            <mxPoint as="offset" />
          </mxGeometry>
        </mxCell>
        <mxCell id="ojdwqN-lHdajQlmeoXYW-47" style="edgeStyle=orthogonalEdgeStyle;rounded=0;orthogonalLoop=1;jettySize=auto;html=1;entryX=0;entryY=0.5;entryDx=0;entryDy=0;" edge="1" parent="WIyWlLk6GJQsqaUBKTNV-1" source="ojdwqN-lHdajQlmeoXYW-40" target="ojdwqN-lHdajQlmeoXYW-45">
          <mxGeometry relative="1" as="geometry" />
        </mxCell>
        <mxCell id="ojdwqN-lHdajQlmeoXYW-48" value="NO" style="edgeLabel;html=1;align=center;verticalAlign=middle;resizable=0;points=[];" vertex="1" connectable="0" parent="ojdwqN-lHdajQlmeoXYW-47">
          <mxGeometry x="-0.2522" y="1" relative="1" as="geometry">
            <mxPoint as="offset" />
          </mxGeometry>
        </mxCell>
        <mxCell id="ojdwqN-lHdajQlmeoXYW-50" style="edgeStyle=orthogonalEdgeStyle;rounded=0;orthogonalLoop=1;jettySize=auto;html=1;" edge="1" parent="WIyWlLk6GJQsqaUBKTNV-1" source="ojdwqN-lHdajQlmeoXYW-40" target="ojdwqN-lHdajQlmeoXYW-44">
          <mxGeometry relative="1" as="geometry" />
        </mxCell>
        <mxCell id="ojdwqN-lHdajQlmeoXYW-51" value="YES" style="edgeLabel;html=1;align=center;verticalAlign=middle;resizable=0;points=[];" vertex="1" connectable="0" parent="ojdwqN-lHdajQlmeoXYW-50">
          <mxGeometry x="-0.0844" y="-4" relative="1" as="geometry">
            <mxPoint as="offset" />
          </mxGeometry>
        </mxCell>
        <mxCell id="ojdwqN-lHdajQlmeoXYW-40" value="JWT AUTH" style="rhombus;whiteSpace=wrap;html=1;" vertex="1" parent="WIyWlLk6GJQsqaUBKTNV-1">
          <mxGeometry x="50" y="545" width="80" height="80" as="geometry" />
        </mxCell>
        <mxCell id="ojdwqN-lHdajQlmeoXYW-46" style="edgeStyle=orthogonalEdgeStyle;rounded=0;orthogonalLoop=1;jettySize=auto;html=1;entryX=1;entryY=0.5;entryDx=0;entryDy=0;" edge="1" parent="WIyWlLk6GJQsqaUBKTNV-1" source="ojdwqN-lHdajQlmeoXYW-41" target="ojdwqN-lHdajQlmeoXYW-45">
          <mxGeometry relative="1" as="geometry" />
        </mxCell>
        <mxCell id="ojdwqN-lHdajQlmeoXYW-49" value="NO" style="edgeLabel;html=1;align=center;verticalAlign=middle;resizable=0;points=[];" vertex="1" connectable="0" parent="ojdwqN-lHdajQlmeoXYW-46">
          <mxGeometry x="-0.0232" y="-4" relative="1" as="geometry">
            <mxPoint as="offset" />
          </mxGeometry>
        </mxCell>
        <mxCell id="ojdwqN-lHdajQlmeoXYW-41" value="JWT AUTH" style="rhombus;whiteSpace=wrap;html=1;" vertex="1" parent="WIyWlLk6GJQsqaUBKTNV-1">
          <mxGeometry x="360" y="545" width="70" height="80" as="geometry" />
        </mxCell>
        <mxCell id="ojdwqN-lHdajQlmeoXYW-44" value="VIEW" style="strokeWidth=2;html=1;shape=mxgraph.flowchart.database;whiteSpace=wrap;" vertex="1" parent="WIyWlLk6GJQsqaUBKTNV-1">
          <mxGeometry x="60" y="720" width="60" height="60" as="geometry" />
        </mxCell>
        <mxCell id="ojdwqN-lHdajQlmeoXYW-45" value="USER NOT FOUND" style="rounded=1;whiteSpace=wrap;html=1;" vertex="1" parent="WIyWlLk6GJQsqaUBKTNV-1">
          <mxGeometry x="180" y="555" width="120" height="60" as="geometry" />
        </mxCell>
        <mxCell id="ojdwqN-lHdajQlmeoXYW-61" style="edgeStyle=orthogonalEdgeStyle;rounded=0;orthogonalLoop=1;jettySize=auto;html=1;entryX=1;entryY=0;entryDx=0;entryDy=0;" edge="1" parent="WIyWlLk6GJQsqaUBKTNV-1" source="ojdwqN-lHdajQlmeoXYW-52" target="ojdwqN-lHdajQlmeoXYW-58">
          <mxGeometry relative="1" as="geometry" />
        </mxCell>
        <mxCell id="ojdwqN-lHdajQlmeoXYW-65" value="END" style="edgeLabel;html=1;align=center;verticalAlign=middle;resizable=0;points=[];" vertex="1" connectable="0" parent="ojdwqN-lHdajQlmeoXYW-61">
          <mxGeometry x="-0.0363" y="2" relative="1" as="geometry">
            <mxPoint as="offset" />
          </mxGeometry>
        </mxCell>
        <mxCell id="ojdwqN-lHdajQlmeoXYW-52" value="DELETE" style="strokeWidth=2;html=1;shape=mxgraph.flowchart.database;whiteSpace=wrap;" vertex="1" parent="WIyWlLk6GJQsqaUBKTNV-1">
          <mxGeometry x="310" y="720" width="60" height="60" as="geometry" />
        </mxCell>
        <mxCell id="ojdwqN-lHdajQlmeoXYW-53" style="edgeStyle=orthogonalEdgeStyle;rounded=0;orthogonalLoop=1;jettySize=auto;html=1;entryX=0.5;entryY=0;entryDx=0;entryDy=0;entryPerimeter=0;" edge="1" parent="WIyWlLk6GJQsqaUBKTNV-1" source="ojdwqN-lHdajQlmeoXYW-41" target="ojdwqN-lHdajQlmeoXYW-52">
          <mxGeometry relative="1" as="geometry" />
        </mxCell>
        <mxCell id="ojdwqN-lHdajQlmeoXYW-54" value="YES" style="edgeLabel;html=1;align=center;verticalAlign=middle;resizable=0;points=[];" vertex="1" connectable="0" parent="ojdwqN-lHdajQlmeoXYW-53">
          <mxGeometry x="-0.0426" y="3" relative="1" as="geometry">
            <mxPoint as="offset" />
          </mxGeometry>
        </mxCell>
        <mxCell id="ojdwqN-lHdajQlmeoXYW-56" style="edgeStyle=orthogonalEdgeStyle;rounded=0;orthogonalLoop=1;jettySize=auto;html=1;" edge="1" parent="WIyWlLk6GJQsqaUBKTNV-1" source="ojdwqN-lHdajQlmeoXYW-55" target="WIyWlLk6GJQsqaUBKTNV-3">
          <mxGeometry relative="1" as="geometry" />
        </mxCell>
        <mxCell id="ojdwqN-lHdajQlmeoXYW-55" value="START" style="ellipse;shape=doubleEllipse;whiteSpace=wrap;html=1;" vertex="1" parent="WIyWlLk6GJQsqaUBKTNV-1">
          <mxGeometry x="170" y="-50" width="100" height="60" as="geometry" />
        </mxCell>
        <mxCell id="ojdwqN-lHdajQlmeoXYW-58" value="END" style="ellipse;shape=doubleEllipse;whiteSpace=wrap;html=1;" vertex="1" parent="WIyWlLk6GJQsqaUBKTNV-1">
          <mxGeometry x="120" y="1109" width="100" height="60" as="geometry" />
        </mxCell>
        <mxCell id="ojdwqN-lHdajQlmeoXYW-60" style="edgeStyle=orthogonalEdgeStyle;rounded=0;orthogonalLoop=1;jettySize=auto;html=1;entryX=0.327;entryY=0.001;entryDx=0;entryDy=0;entryPerimeter=0;" edge="1" parent="WIyWlLk6GJQsqaUBKTNV-1" source="ojdwqN-lHdajQlmeoXYW-44" target="ojdwqN-lHdajQlmeoXYW-58">
          <mxGeometry relative="1" as="geometry" />
        </mxCell>
        <mxCell id="ojdwqN-lHdajQlmeoXYW-64" value="END" style="edgeLabel;html=1;align=center;verticalAlign=middle;resizable=0;points=[];" vertex="1" connectable="0" parent="ojdwqN-lHdajQlmeoXYW-60">
          <mxGeometry x="-0.5138" y="-3" relative="1" as="geometry">
            <mxPoint as="offset" />
          </mxGeometry>
        </mxCell>
      </root>
    </mxGraphModel>
  </diagram>
</mxfile>
